<svg width="161" height="34" viewBox="0 0 161 34" fill="none" xmlns="http://www.w3.org/2000/svg">
<path d="M21.4157 2.75953H22.226L18.149 11.5267L17.7438 10.625L21.4157 2.75953ZM13.7934 27.2075L13.3629 26.2807L18.149 15.9104L18.5795 16.8622L13.7934 27.2075ZM0.95452 0.780649H0.903873C0.777256 0.780649 0.65064 0.830748 0.549347 0.880846C0.0682055 1.13134 -0.134379 1.63232 0.0935299 2.08321L10.0709 23.5754C10.2481 23.901 10.552 24.1014 10.9319 24.1014C11.2611 24.1014 11.5903 23.901 11.7422 23.5504L16.7309 12.8293L17.1614 13.7311L11.5396 25.8549C11.3877 26.1054 11.3877 26.431 11.5396 26.6815L12.9577 29.7625C13.1097 30.0631 13.4389 30.2635 13.8187 30.2635C14.1732 30.2635 14.4771 30.0631 14.6291 29.7625L19.6177 19.0415L20.0482 19.9433L14.5024 31.9418C14.4012 32.1673 14.3758 32.4178 14.4518 32.6432C14.5278 32.8686 14.6797 33.044 14.9076 33.1692C15.0849 33.2444 15.2115 33.2444 15.3128 33.2444C15.6926 33.2444 15.9965 33.044 16.1231 32.6933L21.0105 22.0725L21.6436 23.4251C21.8209 23.7507 22.1247 23.9511 22.5046 23.9511C22.8338 23.9511 23.163 23.7507 23.3149 23.4001L32.9884 2.60924H33.7988L23.087 25.7046C22.9351 25.9551 22.9351 26.2807 23.087 26.5312L24.5051 29.6123C24.6571 29.9128 24.9863 30.1132 25.3661 30.1132C25.7206 30.1132 26.0245 29.9128 26.1765 29.6123L38.7368 2.60924H39.5471L25.9486 31.9168C25.7206 32.3927 25.8726 32.8937 26.3537 33.1191C26.531 33.1943 26.6576 33.1943 26.7589 33.1943C27.1387 33.1943 27.4426 32.9939 27.5692 32.6432L41.8009 2.03311L41.8262 1.98301C41.9022 1.75757 41.9022 1.40688 41.7249 1.15639C41.5477 0.905895 41.2438 0.7556 40.9399 0.7556H38.1037C37.7745 0.7556 37.4453 0.955993 37.2934 1.30668L25.3661 27.0823L24.9356 26.1555L36.0525 2.1333C36.2298 1.83271 36.1285 1.45698 35.9766 1.23153C35.7993 0.981042 35.5461 0.830747 35.2422 0.830747H32.406C32.0514 0.830747 31.7222 1.03114 31.545 1.38183L22.4793 20.8951L22.0235 19.8932L30.2282 2.2335L30.2535 2.1834C30.3295 1.95796 30.3295 1.60727 30.1522 1.35678C30.0003 1.10629 29.6711 0.830747 29.3672 0.830747H26.531C26.2018 0.830747 25.8726 1.18144 25.7206 1.50708L19.5924 14.6829L19.1619 13.7311L24.4798 2.25855C24.6571 1.95796 24.5558 1.58222 24.4038 1.35678C24.2266 1.10629 23.9733 0.830747 23.6695 0.830747H20.8333C20.4787 0.830747 20.1495 1.15639 19.9723 1.50708L16.7309 8.4958L13.4135 1.38183C13.2363 1.05619 12.9071 0.830747 12.5779 0.830747C12.4259 0.830747 12.2993 0.855796 12.198 0.930943C11.7169 1.18144 11.5143 1.68242 11.7422 2.1333L15.718 10.7001L10.9066 21.0454L1.76486 1.33173C1.5876 1.00609 1.28372 0.805698 0.95452 0.780649ZM21.0358 17.7389L20.6053 16.8372L27.1641 2.75953H27.9744L21.0358 17.7389Z" fill="white"/>
<path fill-rule="evenodd" clip-rule="evenodd" d="M153.331 11.342C153.331 10.6646 152.779 10.1413 152.135 10.1413C151.46 10.1413 150.938 10.6954 150.938 11.342V23.3492C150.938 24.0265 151.491 24.5499 152.135 24.5499C152.81 24.5499 153.331 23.9957 153.331 23.3492V19.3468L154.527 18.0845L158.822 24.0573C158.975 24.2728 159.313 24.5807 159.804 24.5807C160.448 24.5807 161 24.0265 161 23.38C161 23.1337 160.908 22.8874 160.785 22.7027L156.184 16.3912L160.11 12.1117C160.294 11.8962 160.417 11.6498 160.417 11.3112C160.417 10.6646 159.896 10.1413 159.251 10.1413C158.945 10.1413 158.638 10.2644 158.362 10.5415L153.362 16.1449V11.342H153.331ZM147.319 10.1413C146.675 10.1413 146.122 10.6954 146.122 11.342V19.6239L139.957 10.6339C139.742 10.326 139.405 10.1413 139.006 10.1413C138.362 10.1413 137.809 10.6954 137.809 11.342V23.38C137.809 24.0265 138.362 24.5807 139.006 24.5807C139.65 24.5807 140.202 24.0265 140.202 23.38V15.1289L146.368 24.0573C146.583 24.3652 146.951 24.5807 147.349 24.5807C147.994 24.5807 148.546 24.0265 148.546 23.38V11.342C148.515 10.6954 147.994 10.1413 147.319 10.1413ZM132.687 20.7322L133.944 23.7802C134.128 24.2113 134.527 24.5807 135.079 24.5807C135.723 24.5807 136.276 24.0265 136.276 23.38C136.276 23.2568 136.245 23.0721 136.184 22.949L131.276 10.9109C131.153 10.6031 130.815 10.172 130.171 10.172C129.527 10.172 129.19 10.6339 129.067 10.9109L124.159 22.949C124.098 23.1029 124.067 23.2568 124.067 23.38C124.067 24.0265 124.619 24.5807 125.263 24.5807C125.815 24.5807 126.214 24.2113 126.398 23.7802L127.656 20.7322H132.687ZM131.889 18.5155H128.453L130.171 14.1129L131.889 18.5155ZM118.607 24.396C121.613 24.396 123.147 22.7334 123.147 20.1781C123.147 18.5463 122.533 17.4072 120.969 16.8222C121.828 16.3912 122.502 15.3444 122.502 13.9897C122.502 12.0501 121.367 10.3568 118.239 10.3568H114.496C113.821 10.3568 113.3 10.9109 113.3 11.5575V23.2261C113.3 23.9034 113.852 24.4268 114.496 24.4268H118.607V24.396ZM115.693 18.1153H118.607C119.987 18.1153 120.662 18.885 120.662 20.1781C120.662 21.4404 120.079 22.2408 118.607 22.2408H115.693V18.1153ZM115.693 12.4811H118.239C119.558 12.4811 120.11 13.1585 120.11 14.2668C120.11 15.3136 119.558 16.0525 118.239 16.0525H115.693V12.4811ZM103.33 20.7322L104.588 23.7802C104.772 24.2113 105.171 24.5807 105.723 24.5807C106.367 24.5807 106.919 24.0265 106.919 23.38C106.919 23.2568 106.889 23.0721 106.827 22.949L101.919 10.9109C101.797 10.6031 101.459 10.172 100.815 10.172C100.171 10.172 99.8334 10.6339 99.7107 10.9109L94.8026 22.949C94.7412 23.1029 94.7106 23.2568 94.7106 23.38C94.7106 24.0265 95.2627 24.5807 95.9069 24.5807C96.4591 24.5807 96.8578 24.2113 97.0419 23.7802L98.2996 20.7322H103.33ZM102.502 18.5155H99.0971L100.815 14.1129L102.502 18.5155ZM86.3669 22.1793C86.7963 22.1793 87.1951 21.9638 87.3792 21.5943L90.6614 15.7446V23.38C90.6614 24.0265 91.2136 24.5807 91.8578 24.5807C92.5019 24.5807 93.0541 24.0265 93.0541 23.38V11.342C93.0541 10.6954 92.5019 10.1413 91.8578 10.1413C91.3363 10.1413 90.9989 10.4491 90.7841 10.8186L86.3669 18.7618L81.9496 10.8186C81.7349 10.4491 81.3975 10.1413 80.876 10.1413C80.2318 10.1413 79.6797 10.6954 79.6797 11.342V23.38C79.6797 24.0265 80.2318 24.5807 80.876 24.5807C81.5202 24.5807 82.0723 24.0265 82.0723 23.38V15.7446L85.3546 21.5943C85.5386 21.9638 85.9374 22.1793 86.3669 22.1793ZM71.3053 12.4811H76.6121C77.2256 12.4811 77.6858 11.9885 77.6858 11.4035C77.6858 10.7878 77.195 10.326 76.6121 10.326H70.0783C69.4034 10.326 68.8819 10.8802 68.8819 11.5267V23.1953C68.8819 23.8726 69.4341 24.396 70.0783 24.396H76.8269C77.4404 24.396 77.9005 23.9034 77.9005 23.3184C77.9005 22.7027 77.4097 22.2408 76.8269 22.2408H71.3053V18.3924H75.2624C75.8452 18.3924 76.336 17.8998 76.336 17.3148C76.336 16.7298 75.8452 16.2372 75.2624 16.2372H71.3053V12.4811ZM61.2745 23.6571C61.4278 24.1805 61.888 24.5499 62.4401 24.5499C62.9923 24.5499 63.4524 24.1805 63.5751 23.7187L67.1334 11.7114C67.1641 11.5883 67.1948 11.4959 67.1948 11.342C67.1948 10.6646 66.6426 10.1413 65.9985 10.1413C65.3236 10.1413 64.9555 10.6339 64.8635 10.9725L62.4094 19.7778L60.0474 11.0341C59.8941 10.4799 59.4033 10.1413 58.8818 10.1413C58.3603 10.1413 57.8695 10.4799 57.7161 11.0341L55.3234 19.7778L52.8694 10.9725C52.7774 10.6031 52.3786 10.1413 51.7344 10.1413C51.0596 10.1413 50.5381 10.6954 50.5381 11.342C50.5381 11.4959 50.5688 11.5883 50.5994 11.7114L54.1578 23.7187C54.3112 24.2113 54.7713 24.5499 55.2928 24.5499C55.8449 24.5499 56.305 24.1805 56.4584 23.6571L58.8511 15.0673L61.2745 23.6571Z" fill="white"/>
</svg>
